<svg xmlns="http://www.w3.org/2000/svg" xmlns:xlink="http://www.w3.org/1999/xlink" viewBox="0 0 428.94 335.52"><defs><style>.cls-1{isolation:isolate;}.cls-2{fill:#dae8ef;}.cls-3{fill:#ccd9e2;}.cls-4{fill:#bcced8;}.cls-5{fill:#112b46;}.cls-27,.cls-6{mix-blend-mode:screen;}.cls-7{fill:#1d262d;}.cls-8{fill:#606bf1;}.cls-9{fill:#fbd15b;}.cls-10{fill:#ff8578;}.cls-11{fill:#f9fbfc;}.cls-12{fill:#f1f2f2;}.cls-13{fill:url(#radial-gradient);}.cls-14{fill:url(#radial-gradient-2);}.cls-15{fill:#f7b094;}.cls-16{fill:url(#linear-gradient);}.cls-17{fill:#0a2033;}.cls-18{fill:#30475e;}.cls-19{fill:url(#radial-gradient-3);}.cls-20{fill:#56548c;}.cls-21{fill:url(#radial-gradient-4);}.cls-22{fill:#3d3d7a;}.cls-23{fill:#f4675d;}.cls-24{fill:url(#radial-gradient-5);}.cls-25{fill:#e8987c;}.cls-26{fill:url(#radial-gradient-6);}.cls-27{fill:#6d4b35;}.cls-28{fill:#abb5ba;}.cls-29{fill:#8495a0;}.cls-30{fill:none;}.cls-31{fill:#141b56;}</style><radialGradient id="radial-gradient" cx="277.52" cy="192.38" r="12.93" gradientUnits="userSpaceOnUse"><stop offset="0" stop-color="#ffc8af"/><stop offset="1" stop-color="#ffbb9c"/></radialGradient><radialGradient id="radial-gradient-2" cx="279.6" cy="169.19" r="20.38" gradientTransform="translate(-38.91 62.44) rotate(-12.15)" xlink:href="#radial-gradient"/><linearGradient id="linear-gradient" x1="224.66" y1="161.57" x2="272.52" y2="161.57" gradientUnits="userSpaceOnUse"><stop offset="0.32" stop-color="#fff"/><stop offset="1"/></linearGradient><radialGradient id="radial-gradient-3" cx="213.01" cy="307.77" r="8.13" xlink:href="#radial-gradient"/><radialGradient id="radial-gradient-4" cx="161.54" cy="309.81" r="7.4" xlink:href="#radial-gradient"/><radialGradient id="radial-gradient-5" cx="243.56" cy="250.7" r="41.44" xlink:href="#radial-gradient"/><radialGradient id="radial-gradient-6" cx="243.56" cy="250.7" r="41.44" xlink:href="#radial-gradient"/></defs><title>coder</title><g class="cls-1"><g id="BACKGROUND"><path class="cls-2" d="M465.68,304.58,449.91,415.29H49L37.16,330.84a21,21,0,0,1,12.74-22.3l35.58-14.77V258.38a21,21,0,0,1,18-20.77l8.42-1.23L126,188.59a21,21,0,0,1,20.12-15H290.66A21,21,0,0,1,311.58,193l68.84,7.27a21,21,0,0,1,18.75,19.64L402,267.69l48.65,13.74A21,21,0,0,1,465.68,304.58Z" transform="translate(-36.96 -79.77)"/><path class="cls-3" d="M73,327.42l12.52,87.87H403.78l9.4-67a16.7,16.7,0,0,0-10.12-17.71l-28.24-11.72V290.74a16.64,16.64,0,0,0-14.25-16.48l-6.68-1-11.21-37.93a16.65,16.65,0,0,0-16-11.94H212a16.66,16.66,0,0,0-16.61,15.45l-54.64,5.77a16.68,16.68,0,0,0-14.89,15.59l-2.2,37.91L85,309A16.66,16.66,0,0,0,73,327.42Z" transform="translate(-36.96 -79.77)"/><path class="cls-4" d="M335.57,382.55a19.06,19.06,0,0,0-16.3-18.87l-7.65-1.12-12.84-43.41a19,19,0,0,0-18.28-13.66H149.18a19,19,0,0,0-19,17.68l-56.86,6,12.27,86.12H337l-1.44-.59Z" transform="translate(-36.96 -79.77)"/></g><g id="OBJECTS"><rect class="cls-5" x="83.28" y="19.34" width="97.55" height="91.05"/><g class="cls-6"><rect class="cls-7" x="83.28" y="19.34" width="97.55" height="9.63"/></g><path class="cls-8" d="M196.7,104a1.77,1.77,0,1,1-1.77-1.76A1.77,1.77,0,0,1,196.7,104Z" transform="translate(-36.96 -79.77)"/><path class="cls-9" d="M204.07,104a1.77,1.77,0,1,1-1.77-1.76A1.77,1.77,0,0,1,204.07,104Z" transform="translate(-36.96 -79.77)"/><path class="cls-10" d="M210.91,104.23a1.77,1.77,0,1,1-1.76-1.77A1.76,1.76,0,0,1,210.91,104.23Z" transform="translate(-36.96 -79.77)"/><rect class="cls-10" x="100.62" y="37.92" width="13.82" height="1.16"/><rect class="cls-9" x="116.84" y="37.92" width="13.82" height="1.16"/><rect class="cls-8" x="104.9" y="44.18" width="21.43" height="1.16"/><rect class="cls-10" x="129.86" y="44.18" width="10.89" height="1.16"/><rect class="cls-9" x="112.33" y="50.44" width="9.41" height="1.16"/><rect class="cls-9" x="127.18" y="50.44" width="31.22" height="1.16"/><rect class="cls-8" x="119.64" y="56.69" width="35.68" height="1.16"/><rect class="cls-10" x="110.72" y="62.95" width="10.98" height="1.16"/><rect class="cls-8" x="126.4" y="62.95" width="10.98" height="1.16"/><rect class="cls-10" x="100.62" y="95.4" width="15.97" height="1.16"/><rect class="cls-9" x="122.19" y="95.4" width="15.97" height="1.16"/><rect class="cls-10" x="143.18" y="95.4" width="15.97" height="1.16"/><rect class="cls-8" x="104.9" y="89.15" width="31.22" height="1.16"/><rect class="cls-10" x="140.98" y="89.15" width="31.22" height="1.16"/><rect class="cls-10" x="112.33" y="82.89" width="30.98" height="1.16"/><rect class="cls-9" x="146.01" y="82.89" width="8.62" height="1.16"/><rect class="cls-9" x="110.3" y="76.64" width="11.66" height="1.16"/><rect class="cls-8" x="128.16" y="76.64" width="11.66" height="1.16"/><rect class="cls-10" x="147.32" y="76.64" width="11.66" height="1.16"/><rect class="cls-9" x="123.82" y="70.38" width="16.35" height="1.16"/><rect class="cls-8" x="101.3" y="70.38" width="16.35" height="1.16"/><rect class="cls-11" x="91.58" y="36.81" width="1.49" height="1.49"/><path class="cls-11" d="M130,171.13h-1.48v-3H130Zm0-7.58h-1.48v-3H130Zm0-7.58h-1.48v-3H130Zm0-7.58h-1.48v-3H130Zm0-7.58h-1.48v-3H130Zm0-7.58h-1.48v-3H130Zm0-7.58h-1.48v-3H130Z" transform="translate(-36.96 -79.77)"/><rect class="cls-11" x="91.58" y="95.9" width="1.49" height="1.49"/><rect class="cls-10" x="201.82" width="80.33" height="49.52"/><path class="cls-11" d="M270,99.69l-9.55,4.08,9.55,4-1.25,2.89-11.46-5.12V102l11.46-5.15Z" transform="translate(-36.96 -79.77)"/><path class="cls-11" d="M284.06,90.25l-6.94,26.65-3.3-.78,7-26.61Z" transform="translate(-36.96 -79.77)"/><path class="cls-11" d="M300.65,102v3.55l-11.47,5.12-1.25-2.89,9.53-4-9.53-4.08,1.25-2.83Z" transform="translate(-36.96 -79.77)"/><rect class="cls-8" x="279.39" y="95.93" width="45.75" height="32.6"/><path class="cls-12" d="M335.49,182.74c-1.48,0-2,.39-2,1.49v4.91c0,1.91-.79,2.5-2.12,2.87,1.33.35,2.12.94,2.12,2.83v4.9c0,1.1.52,1.5,2,1.5v2.15c-3.72,0-4.77-1.19-4.77-3.67v-4.65c0-1.33-.35-1.84-1.56-1.84v-2.46c1.21,0,1.56-.53,1.56-1.87v-4.64c0-2.5,1-3.67,4.77-3.67Z" transform="translate(-36.96 -79.77)"/><path class="cls-12" d="M347.73,184.26v4.64c0,1.34.35,1.87,1.59,1.87v2.46c-1.24,0-1.59.51-1.59,1.84v4.65c0,2.48-1.05,3.67-4.77,3.67v-2.15c1.45,0,2-.4,2-1.5v-4.9a2.46,2.46,0,0,1,2.13-2.83c-1.33-.37-2.13-1-2.13-2.87v-4.91c0-1.1-.49-1.49-2-1.49v-2.15C346.68,180.59,347.73,181.76,347.73,184.26Z" transform="translate(-36.96 -79.77)"/><rect class="cls-9" x="52.23" y="7.1" width="51.33" height="34.33"/><path class="cls-11" d="M106.17,96.73A8.42,8.42,0,0,0,117.44,109l5.39,5.39a.59.59,0,0,0,.82,0l1.52-1.52a.57.57,0,0,0,0-.82l-5.39-5.39a8.42,8.42,0,0,0-13.61-9.91ZM117,106.18a6,6,0,1,1,0-8.42A6,6,0,0,1,117,106.18Z" transform="translate(-36.96 -79.77)"/><path class="cls-13" d="M289.83,192.92c-.12,1.14-1.67,13-13.84,13-12.78,0-10.64-12.66-10.64-12.66l0-.08a12.93,12.93,0,0,1,4-.19v-6l14.51-8.12h.53v14A26.54,26.54,0,0,1,289.83,192.92Z" transform="translate(-36.96 -79.77)"/><path class="cls-14" d="M282.78,152.12a16.52,16.52,0,0,1,4.36,8.08c1.39,6.15.08,12.65-1.7,18.57a9.28,9.28,0,0,1-1.28,2.89,10.08,10.08,0,0,1-1.59,1.61q-3.87,3.36-7.73,6.75c-1.75,1.52-12.49,2.8-14.54,1.33-7.9-5.65-9.43-22-7.84-30.39C255.08,147.08,272.92,142.12,282.78,152.12Z" transform="translate(-36.96 -79.77)"/><path class="cls-15" d="M278.34,169.88c.11-1.33,1.48-2.8,2.86-1.93s1.09,3.27.5,4.58c-.46,1-2,2.14-3.07,1.19-.88-.8.49-1.74.54-2.47s-1.28-1.12-.74-1.83" transform="translate(-36.96 -79.77)"/><path class="cls-15" d="M278.59,176.06a4.09,4.09,0,0,0,4.5-2.67,15.25,15.25,0,0,0,.55-4.3,10.29,10.29,0,0,1,.36,4.74c-.38,2.92-1.4,5.71-3.69,5.74S278.59,176.06,278.59,176.06Z" transform="translate(-36.96 -79.77)"/><path class="cls-16" d="M276.83,174a.43.43,0,0,1-.16.05c-.9.12-1.25-.95-1.38-1.63a30.43,30.43,0,0,1-.32-4.77,3.6,3.6,0,0,0-.14-1.27c-.5-1.15-1.84-1.89-2.25-3.08-.47-1.38.87-2.75.34-4.26-.82-2.31-3.78-2.84-5.93-2.82a68.21,68.21,0,0,0-9.54,1.13c-3.35.52-7.64,1-10.6-1.11-3.56-2.55-5-9.22-2.39-12.87a8.65,8.65,0,0,1,6.61-3.1c2.55-.06,4.71,1.46,7.05,2.23,1.86.61,3.67-1.18,5.41-1.52,2.19-.44,3.12,1.95,5.06,2s3.73-1.41,5.56-1.75c3.65-.66,3.44,3,5.89,4.26,1.52.78,3.49.3,5,1.1,1.17.6,1.33,1.65,1.59,2.85a27.94,27.94,0,0,0,.57,3.21,7.16,7.16,0,0,0,1.63,2.13,8,8,0,0,1,1.35,2.58,16.18,16.18,0,0,1,.68,6.56,44.32,44.32,0,0,1-2.75,10.79c-.8,2.25-1.09,4.6-2.32,6.73-.33.57-1.8,2.24-2.34,1a1.79,1.79,0,0,1-.08-.86c.16-2.33,2.32-17.29-3.34-15.49a4,4,0,0,0-2.44,2.49,9.87,9.87,0,0,0-.5,4.14c0,.21,0,.41,0,.62A.7.7,0,0,1,276.83,174Z" transform="translate(-36.96 -79.77)"/><path class="cls-15" d="M269.34,191.6c6.45-1,10.7-6.13,10.7-6.13a11.76,11.76,0,0,1-11.08,9Z" transform="translate(-36.96 -79.77)"/><path class="cls-17" d="M281.55,308.57h6a1.63,1.63,0,0,1,1.63,1.63v88.53a0,0,0,0,1,0,0h-9.23a0,0,0,0,1,0,0V310.2A1.63,1.63,0,0,1,281.55,308.57Z" transform="translate(532.12 627.52) rotate(180)"/><path class="cls-18" d="M265.48,309.84h38.11a6.31,6.31,0,0,1,6.31,6.31v1.39a0,0,0,0,1,0,0H259.17a0,0,0,0,1,0,0v-1.39A6.31,6.31,0,0,1,265.48,309.84Z" transform="translate(532.12 547.6) rotate(180)"/><path class="cls-17" d="M281.55,388.23h6a1.63,1.63,0,0,1,1.63,1.63v20.51a0,0,0,0,1,0,0h-9.23a0,0,0,0,1,0,0V389.85A1.63,1.63,0,0,1,281.55,388.23Z" transform="translate(532.12 718.82) rotate(180)"/><path class="cls-17" d="M236.66,405a5.4,5.4,0,1,0,5.4-5.4A5.4,5.4,0,0,0,236.66,405Z" transform="translate(-36.96 -79.77)"/><path class="cls-17" d="M321.62,405a5.4,5.4,0,1,0,5.4-5.4A5.4,5.4,0,0,0,321.62,405Z" transform="translate(-36.96 -79.77)"/><rect class="cls-18" x="275.26" y="381.35" width="18.56" height="16.22" transform="translate(532.12 699.15) rotate(180)"/><path class="cls-9" d="M236.66,393.75h95.76a0,0,0,0,1,0,0v1.88a5.75,5.75,0,0,1-5.75,5.75H242.41a5.75,5.75,0,0,1-5.75-5.75v-1.88A0,0,0,0,1,236.66,393.75Z" transform="translate(532.12 715.37) rotate(180)"/><rect class="cls-18" x="244.38" y="239.58" width="3.2" height="60.55"/><path class="cls-9" d="M320.79,244.4a3.77,3.77,0,0,0-3.89,4c.63,11-1.7,37.8-11.93,46.94-12.52,11.19-48,9.67-48,9.67s-5.86,7.19,5.86,8.78,44.73.54,52.72-6.92c7.73-7.22,12.32-26.13,8.87-59a3.8,3.8,0,0,0-3.64-3.41Z" transform="translate(-36.96 -79.77)"/><polygon class="cls-19" points="217.37 300.13 221.59 309.75 208.66 315.42 204.43 305.77 217.37 300.13"/><path class="cls-20" d="M315.28,273c-.8,1.6-58.23,0-63.66.53,0,0-35.15,16.77-40.19,32.48a16.94,16.94,0,0,0-.5,6.17c1.41,22.11,26.59,75.06,26.59,75.06l3.86-1.7,12.94-5.64,1.84-.8s-20-59.51-16-62.71,49.26-11.18,65-15.43S315.28,273,315.28,273Z" transform="translate(-36.96 -79.77)"/><polygon class="cls-21" points="168.09 302.6 169.1 317.05 154.99 317.05 153.98 302.57 168.09 302.6"/><path class="cls-22" d="M251.34,273l-.51.23S192,281.52,182.4,298c-6.24,10.74,5.82,89.19,5.82,89.19l20.82.05s-3.11-65.35-2.07-69c1.16-4.15,3.16-5.65,4-6.08a16.94,16.94,0,0,1,.5-6.17c5-15.71,40.19-32.48,40.19-32.48A1,1,0,0,1,251.34,273Z" transform="translate(-36.96 -79.77)"/><path class="cls-10" d="M308.17,218.66l-3.94.54a193,193,0,0,1-3.31,21.29l-49.16,18.66-.67,3.56-.61,0c0,.74,0,1.46.05,2.13.11,4.1.38,7.06.81,8.24a1,1,0,0,0,.29.5c1.34,1.09,18.72-1,37.52,5.88,16.3,6,25.44,12.52,25.86,11.64C320.14,280.4,310.81,238.6,308.17,218.66Z" transform="translate(-36.96 -79.77)"/><path class="cls-23" d="M303,243c-1.31,6.3-4.69,18.82-11.34,20.5-8.68,2.21-25.45,2.09-41.17,1.25,0-.67,0-1.39-.05-2.13l.61,0,.67-3.56,49.16-18.66a193,193,0,0,0,3.31-21.29s0,.07,0,.18C304.34,221,305,233.74,303,243Z" transform="translate(-36.96 -79.77)"/><path class="cls-23" d="M253.77,203c-.88,1.59-2.15,18.69-2.83,35.66l-10.05-9.38C245.15,221,253.77,203,253.77,203Z" transform="translate(-36.96 -79.77)"/><path class="cls-15" d="M247.74,251c-8.48,1.47-16.28,2.74-16.28,2.74v.41c-9.45-7.54-23.81-28.9-23.81-28.9s4.3-5.16,5.37-6.52c.16-.21,23.58,15.91,24.78,15.77.3,0,1.5-2.14,3.1-5.27l10.05,9.38c-.16,4-.29,8.07-.37,11.88C249.63,250.68,248.68,250.84,247.74,251Z" transform="translate(-36.96 -79.77)"/><path class="cls-24" d="M231.46,253.75l-.21,7H205.69s2.54-10,9.46-10,9.58,3.66,9.58,3.66Z" transform="translate(-36.96 -79.77)"/><path class="cls-15" d="M212.82,218.58l.19.16c-1.07,1.36-5.37,6.52-5.37,6.52L205,223.37a6.63,6.63,0,0,1-6.36-.08c-3.56-1.93-1.36-6.55-1.17-7.09-.69.19-5,3.64-5.63,3.28s-1.17-1.59,3.61-6.3,11.24,1.34,11.44,1.34Z" transform="translate(-36.96 -79.77)"/><path class="cls-15" d="M199.17,222.49s-1,1.93.8,2.77a18.33,18.33,0,0,0,6.92,1.3c1.53-.15,2.75-2.29,2.75-2.29L205,219.92h-3.7Z" transform="translate(-36.96 -79.77)"/><path class="cls-25" d="M198.89,223.44c.28-.95,2.91-.44,4.54-.4,1.2,0,1.86-.29,2.23-1.21s-1.37-2.37-1.71-1.91.63,1.1.65,1.71-1.71.81-3.06.81a32.74,32.74,0,0,0-3.66.35Z" transform="translate(-36.96 -79.77)"/><path class="cls-26" d="M298.42,249.56l-25-8.87c-1.83,3.41-3.78,6-5.71,6.47-2.92.77-10,2.1-17.11,3.34-.94.18-1.89.34-2.83.51-8.48,1.47-16.28,2.74-16.28,2.74l0,.41v.27l-.19,6.32v1.6a176.19,176.19,0,0,1,19.22.31c15,1.07,34.35,1.71,40.76-1.31,3-1.42,5.4-6.09,7.29-11.84Z" transform="translate(-36.96 -79.77)"/><polygon class="cls-15" points="236.43 160.92 261.46 169.79 260.33 173.13 235.55 162.5 236.43 160.92"/><path class="cls-10" d="M273.39,240.69c-1.83,3.41-3.78,6-5.71,6.47-2.92.77-10,2.1-17.11,3.34.08-3.81.21-7.84.37-11.88.68-17,1.95-34.07,2.83-35.66,1.43-2.67,5.36-8.47,11.56-9.8l0,.08S263.21,205.9,276,205.9c12.17,0,13.72-11.84,13.84-13,6.26.7,15.86,3.84,17.19,16.43.27,2.49.65,5.68,1.15,9.31l-3.95.54s-1.6,17.74-5.7,30.31l-.1.05Z" transform="translate(-36.96 -79.77)"/><polygon class="cls-27" points="236.17 158.61 246.17 134.41 238.8 159.59 236.17 158.61"/><path class="cls-10" d="M289.83,192.92h-5.45s-7.76,8.51-12.74,8.51-2.3-8.46-2.3-8.46h-2.43a13.75,13.75,0,0,0-13.65,12.19c-.09.79-.18,1.54-.25,2.23-.53,5.15,20.33,8.89,20.33,8.89l10.75-.6L290.61,203l1.3-5.22Z" transform="translate(-36.96 -79.77)"/><path class="cls-12" d="M224.08,406.26c.49,2.61,2.29,4.46,4.9,4l34.7-6.47a1.62,1.62,0,0,0,1.29-1.89l-.57-3.08s-36.5,6.39-40.33,7.45Z" transform="translate(-36.96 -79.77)"/><path class="cls-22" d="M234.41,397.53l1.07-.94,2-1.82c.35-.31.7-.62,1-.92l1.76-1.57,1.07-1,1.42-1.27a.78.78,0,0,1,1,0c1.43,1.2,6,3.94,14.39-1.23a.82.82,0,0,1,1.14.3l5,9.7s-36.5,6.39-40.33,7.45C225.33,405.46,230,401.43,234.41,397.53Z" transform="translate(-36.96 -79.77)"/><path class="cls-12" d="M169.43,405.92c.07,2.65,1.55,4.76,4.2,4.7l35.29-.86a1.62,1.62,0,0,0,1.58-1.66l-.08-3.13s-37,.49-41,.93Z" transform="translate(-36.96 -79.77)"/><path class="cls-22" d="M181,398.94l1.2-.75,2.31-1.47,1.15-.74,2-1.28,1.21-.79,1.6-1a.78.78,0,0,1,1,.14c1.21,1.41,5.33,4.85,14.4,1.08a.79.79,0,0,1,1.07.48L210.42,405s-37,.49-41,.93C170.79,405.33,176,402.09,181,398.94Z" transform="translate(-36.96 -79.77)"/><polygon class="cls-28" points="107.37 182.57 88.53 132.31 142.18 132.31 161.03 182.57 107.37 182.57"/><polygon class="cls-29" points="164.34 182.57 161.03 182.57 142.18 132.31 145.19 132.44 162.62 177.94 164.34 182.57"/><polyline class="cls-30" points="91.41 177.14 91.69 177.14 158.97 177.14"/><path class="cls-29" d="M200.26,262.35h35.45l-.09-3.17H199.53" transform="translate(-36.96 -79.77)"/><rect class="cls-29" x="305.81" y="192.16" width="8.54" height="140.23"/><rect class="cls-28" x="259.48" y="192.16" width="8.54" height="140.23"/><rect class="cls-29" x="111.04" y="192.16" width="8.54" height="140.23"/><rect class="cls-28" x="64.7" y="192.16" width="8.54" height="140.23"/><rect class="cls-31" x="52.38" y="182.57" width="274.66" height="10.12" rx="4.15"/><polygon class="cls-29" points="97.48 137.59 98.4 140.04 109.09 140.04 108.17 137.59 97.48 137.59"/><polygon class="cls-25" points="203.93 149.46 203.16 150.95 213.98 162.12 213.98 158.84 203.93 149.46"/></g></g></svg>