<svg xmlns="http://www.w3.org/2000/svg" xmlns:xlink="http://www.w3.org/1999/xlink" viewBox="0 0 431.06 556.32"><defs><style>.cls-1{isolation:isolate;}.cls-2{fill:#112c46;}.cls-24,.cls-3{mix-blend-mode:screen;}.cls-4{fill:#1d262d;}.cls-5{fill:#5f6ab1;}.cls-6{fill:#fbd15b;}.cls-7{fill:#f48579;}.cls-8{fill:#f9fcfd;}.cls-9{fill:#f2f2f2;}.cls-10{fill:url(#radial-gradient);}.cls-11{fill:url(#radial-gradient-2);}.cls-12{fill:#f6b095;}.cls-13{fill:url(#linear-gradient);}.cls-14{fill:#0d2033;}.cls-15{fill:#31485e;}.cls-16{fill:url(#radial-gradient-3);}.cls-17{fill:#57558d;}.cls-18{fill:url(#radial-gradient-4);}.cls-19{fill:#3d3e7b;}.cls-20{fill:#f2685e;}.cls-21{fill:url(#radial-gradient-5);}.cls-22{fill:#e9997c;}.cls-23{fill:url(#radial-gradient-6);}.cls-24{fill:#6e4c36;}.cls-25{fill:#acb6bb;}.cls-26{fill:#84959f;}.cls-27{fill:none;}.cls-28{fill:#212155;}</style><radialGradient id="radial-gradient" cx="498.19" cy="219.71" r="12.93" gradientTransform="translate(-208.31 -109.02) scale(1.57 1.67)" gradientUnits="userSpaceOnUse"><stop offset="0" stop-color="#fbc7b0"/><stop offset="1" stop-color="#faba9c"/></radialGradient><radialGradient id="radial-gradient-2" cx="522" cy="165.76" r="20.38" gradientTransform="matrix(1.53, -0.35, 0.33, 1.64, -293.78, 132.23)" xlink:href="#radial-gradient"/><linearGradient id="linear-gradient" x1="490.21" y1="207.14" x2="565.28" y2="207.14" gradientUnits="userSpaceOnUse"><stop offset="0.32" stop-color="#fff"/><stop offset="1" stop-color="#010101"/></linearGradient><radialGradient id="radial-gradient-3" cx="470.63" cy="414.88" r="8.13" gradientTransform="translate(-486.02 -179.26) scale(1.57 1.67)" xlink:href="#radial-gradient"/><radialGradient id="radial-gradient-4" cx="419.17" cy="416.92" r="7.4" gradientTransform="translate(-486.02 -179.26) scale(1.57 1.67)" xlink:href="#radial-gradient"/><radialGradient id="radial-gradient-5" cx="464.23" cy="278.03" r="41.44" xlink:href="#radial-gradient"/><radialGradient id="radial-gradient-6" cx="464.23" cy="278.03" r="41.44" xlink:href="#radial-gradient"/></defs><title>coder</title><g class="cls-1"><g id="Layer_1" data-name="Layer 1"><rect class="cls-2" x="48.7" y="32.37" width="153.02" height="152.4"/><g class="cls-3"><rect class="cls-4" x="48.7" y="32.37" width="153.02" height="16.12"/></g><path class="cls-5" d="M446.35,110.86a2.77,2.77,0,1,1-2.76-3A2.86,2.86,0,0,1,446.35,110.86Z" transform="translate(-277.71 -70.24)"/><path class="cls-6" d="M457.92,110.86a2.78,2.78,0,1,1-2.77-3A2.86,2.86,0,0,1,457.92,110.86Z" transform="translate(-277.71 -70.24)"/><path class="cls-7" d="M468.65,111.17a2.78,2.78,0,1,1-2.77-3A2.86,2.86,0,0,1,468.65,111.17Z" transform="translate(-277.71 -70.24)"/><rect class="cls-7" x="75.91" y="63.47" width="21.67" height="1.94"/><rect class="cls-6" x="101.35" y="63.47" width="21.67" height="1.94"/><rect class="cls-5" x="82.61" y="73.94" width="33.61" height="1.94"/><rect class="cls-7" x="121.78" y="73.94" width="17.08" height="1.94"/><rect class="cls-6" x="94.27" y="84.41" width="14.76" height="1.94"/><rect class="cls-6" x="117.56" y="84.41" width="48.97" height="1.94"/><rect class="cls-5" x="105.74" y="94.88" width="55.96" height="1.94"/><rect class="cls-7" x="91.74" y="105.35" width="17.22" height="1.94"/><rect class="cls-5" x="116.34" y="105.35" width="17.22" height="1.94"/><rect class="cls-7" x="75.91" y="159.68" width="25.06" height="1.94"/><rect class="cls-6" x="109.74" y="159.68" width="25.06" height="1.94"/><rect class="cls-7" x="142.66" y="159.68" width="25.06" height="1.94"/><rect class="cls-5" x="82.61" y="149.21" width="48.97" height="1.94"/><rect class="cls-7" x="139.21" y="149.21" width="48.97" height="1.94"/><rect class="cls-7" x="94.27" y="138.73" width="48.59" height="1.94"/><rect class="cls-6" x="147.1" y="138.73" width="13.52" height="1.94"/><rect class="cls-6" x="91.1" y="128.26" width="18.29" height="1.94"/><rect class="cls-5" x="119.11" y="128.26" width="18.29" height="1.94"/><rect class="cls-7" x="149.16" y="128.26" width="18.29" height="1.94"/><rect class="cls-6" x="112.3" y="117.79" width="25.65" height="1.94"/><rect class="cls-5" x="76.98" y="117.79" width="25.65" height="1.94"/><rect class="cls-8" x="61.73" y="61.61" width="2.33" height="2.49"/><path class="cls-8" d="M341.77,223.13h-2.33v-5.07h2.33Zm0-12.68h-2.33v-5.07h2.33Zm0-12.69h-2.33v-5.07h2.33Zm0-12.68h-2.33V180h2.33Zm0-12.69h-2.33v-5.07h2.33Zm0-12.68h-2.33v-5.08h2.33Zm0-12.69h-2.33V142h2.33Z" transform="translate(-277.71 -70.24)"/><rect class="cls-8" x="61.73" y="160.5" width="2.33" height="2.49"/><rect class="cls-7" x="234.65" width="126" height="82.87"/><path class="cls-8" d="M561.29,103.57l-15,6.83,15,6.73-2,4.83-18-8.57v-5.93l18-8.62Z" transform="translate(-277.71 -70.24)"/><path class="cls-8" d="M583.38,87.78l-10.88,44.6-5.18-1.3,10.93-44.55Z" transform="translate(-277.71 -70.24)"/><path class="cls-8" d="M609.4,107.46v5.93l-18,8.57-2-4.83,14.95-6.73-14.95-6.83,2-4.73Z" transform="translate(-277.71 -70.24)"/><rect class="cls-5" x="356.32" y="160.55" width="71.77" height="54.55"/><path class="cls-9" d="M664.05,242.57c-2.31,0-3.08.66-3.08,2.5v8.21c0,3.21-1.24,4.19-3.33,4.81,2.09.59,3.33,1.56,3.33,4.73V271c0,1.84.81,2.5,3.08,2.5v3.6c-5.83,0-7.48-2-7.48-6.14v-7.78c0-2.23-.54-3.09-2.45-3.09V256c1.91,0,2.45-.9,2.45-3.13v-7.78c0-4.18,1.65-6.14,7.48-6.14Z" transform="translate(-277.71 -70.24)"/><path class="cls-9" d="M683.25,245.11v7.78c0,2.23.55,3.13,2.49,3.13v4.1c-1.94,0-2.49.86-2.49,3.09V271c0,4.15-1.65,6.14-7.47,6.14v-3.6c2.27,0,3.08-.66,3.08-2.5v-8.21c0-3.17,1.24-4.14,3.33-4.73-2.09-.62-3.33-1.6-3.33-4.81v-8.21c0-1.84-.77-2.5-3.08-2.5V239C681.6,239,683.25,240.93,683.25,245.11Z" transform="translate(-277.71 -70.24)"/><rect class="cls-6" y="11.89" width="80.51" height="57.46"/><path class="cls-8" d="M304.36,98.62a14.91,14.91,0,0,0,.13,17.71A12.67,12.67,0,0,0,322,119.12l8.45,9a.87.87,0,0,0,1.29,0l2.37-2.54a1,1,0,0,0,0-1.37l-8.45-9a14.82,14.82,0,0,0-1.65-17.79A12.68,12.68,0,0,0,304.36,98.62Zm17,15.82a9,9,0,0,1-13.22,0,10.47,10.47,0,0,1,0-14.1,9,9,0,0,1,13.22,0A10.47,10.47,0,0,1,321.32,114.44Z" transform="translate(-277.71 -70.24)"/><path class="cls-10" d="M592.43,259.61c-.18,1.9-2.61,21.72-21.7,21.72-20.05,0-16.69-21.18-16.69-21.18l0-.13a18.92,18.92,0,0,1,6.29-.33v-10l22.76-13.59h.82v23.4A39.32,39.32,0,0,1,592.43,259.61Z" transform="translate(-277.71 -70.24)"/><path class="cls-11" d="M581.38,191.32a28.46,28.46,0,0,1,6.84,13.53c2.18,10.29.13,21.17-2.67,31.08a16.28,16.28,0,0,1-2,4.84,16.72,16.72,0,0,1-2.5,2.68l-12.13,11.3c-2.74,2.56-19.59,4.69-22.81,2.23-12.39-9.45-14.78-36.85-12.3-50.85C537.93,182.89,565.92,174.59,581.38,191.32Z" transform="translate(-277.71 -70.24)"/><path class="cls-12" d="M574.42,221.05c.16-2.23,2.32-4.68,4.48-3.23s1.71,5.47.78,7.66c-.72,1.71-3.16,3.59-4.81,2-1.38-1.34.77-2.92.84-4.14s-2-1.88-1.15-3.06" transform="translate(-277.71 -70.24)"/><path class="cls-12" d="M574.81,231.39c2.26.73,6.09-1.11,7.06-4.47a27.61,27.61,0,0,0,.86-7.19,18.25,18.25,0,0,1,.55,7.93c-.58,4.89-2.19,9.55-5.78,9.61S574.81,231.39,574.81,231.39Z" transform="translate(-277.71 -70.24)"/><path class="cls-13" d="M572,227.91a.92.92,0,0,1-.25.09c-1.4.2-2-1.6-2.17-2.73a54.55,54.55,0,0,1-.49-8,6.32,6.32,0,0,0-.23-2.13c-.78-1.92-2.88-3.17-3.52-5.15-.74-2.31,1.36-4.61.53-7.14-1.28-3.86-5.93-4.75-9.3-4.71-5.05.06-10,1.06-15,1.89-5.26.87-12,1.69-16.63-1.86-5.59-4.28-7.92-15.43-3.75-21.54,2.27-3.33,6.59-5.1,10.36-5.19,4-.1,7.39,2.45,11.06,3.73,2.93,1,5.76-2,8.49-2.55,3.44-.73,4.9,3.27,7.94,3.38s5.85-2.35,8.73-2.91c5.72-1.12,5.38,5,9.23,7.11,2.38,1.31,5.47.52,7.88,1.84,1.84,1,2.1,2.77,2.5,4.78a46.62,46.62,0,0,0,.9,5.37c.48,1.48,1.64,2.41,2.55,3.57A13.62,13.62,0,0,1,593,200.1a28.63,28.63,0,0,1,1.05,11c-.51,6.17-2.37,12.24-4.3,18-1.25,3.77-1.72,7.7-3.65,11.26-.51,1-2.81,3.76-3.67,1.68a3.36,3.36,0,0,1-.12-1.45c.25-3.88,3.64-28.93-5.25-25.92a6.57,6.57,0,0,0-3.81,4.18,17.45,17.45,0,0,0-.79,6.93c0,.34,0,.68,0,1A1.17,1.17,0,0,1,572,227.91Z" transform="translate(-277.71 -70.24)"/><path class="cls-12" d="M560.3,257.4c10.11-1.73,16.78-10.26,16.78-10.26s-2.72,14.37-17.39,15.13Z" transform="translate(-277.71 -70.24)"/><path class="cls-14" d="M578.52,453.17h11.22a1.63,1.63,0,0,1,1.63,1.63V604.06a0,0,0,0,1,0,0H576.9a0,0,0,0,1,0,0V454.8A1.63,1.63,0,0,1,578.52,453.17Z" transform="translate(890.56 986.99) rotate(180)"/><path class="cls-15" d="M550.65,455.29h67a6.31,6.31,0,0,1,6.31,6.31v6.57a0,0,0,0,1,0,0H544.34a0,0,0,0,1,0,0V461.6A6.31,6.31,0,0,1,550.65,455.29Z" transform="translate(890.56 853.22) rotate(180)"/><path class="cls-14" d="M578.52,586.49h11.22a1.63,1.63,0,0,1,1.63,1.63v35.43a0,0,0,0,1,0,0H576.9a0,0,0,0,1,0,0V588.11A1.63,1.63,0,0,1,578.52,586.49Z" transform="translate(890.56 1139.79) rotate(180)"/><path class="cls-14" d="M509,614.51a8.49,8.49,0,1,0,8.47-9A8.76,8.76,0,0,0,509,614.51Z" transform="translate(-277.71 -70.24)"/><path class="cls-14" d="M642.3,614.51a8.49,8.49,0,1,0,8.47-9A8.76,8.76,0,0,0,642.3,614.51Z" transform="translate(-277.71 -70.24)"/><rect class="cls-15" x="569.58" y="574.98" width="29.12" height="27.15" transform="translate(890.56 1106.87) rotate(180)"/><path class="cls-6" d="M509,595.74h150.2a0,0,0,0,1,0,0v7a5.75,5.75,0,0,1-5.75,5.75H514.78a5.75,5.75,0,0,1-5.75-5.75v-7a0,0,0,0,1,0,0Z" transform="translate(890.56 1134.02) rotate(180)"/><rect class="cls-15" x="301.4" y="400.98" width="5.02" height="101.34"/><path class="cls-6" d="M641,345.78a6.12,6.12,0,0,0-6.09,6.65c1,18.39-2.66,63.26-18.72,78.57-19.63,18.72-75.27,16.17-75.27,16.17s-9.19,12,9.19,14.71,70.17.89,82.7-11.59c12.13-12.08,19.33-43.73,13.9-98.81a6.11,6.11,0,0,0-5.71-5.7Z" transform="translate(-277.71 -70.24)"/><polygon class="cls-16" points="259.03 502.32 265.65 518.41 245.38 527.91 238.73 511.76 259.03 502.32"/><path class="cls-17" d="M632.35,393.64c-1.25,2.67-91.33.05-99.84.88,0,0-55.14,28.08-63.06,54.36a30.7,30.7,0,0,0-.77,10.33c2.2,37,41.7,125.62,41.7,125.62l6.06-2.83,20.3-9.44,2.89-1.34s-31.33-99.61-25.07-105,77.27-18.72,101.9-25.84S632.35,393.64,632.35,393.64Z" transform="translate(-277.71 -70.24)"/><polygon class="cls-18" points="181.74 506.46 183.32 530.64 161.19 530.64 159.61 506.4 181.74 506.46"/><path class="cls-19" d="M532.06,393.69l-.81.38S439,407.89,423.92,435.51c-9.78,18,9.14,149.28,9.14,149.28l32.66.08s-4.89-109.38-3.26-115.48c1.83-6.95,5-9.46,6.22-10.18a30.7,30.7,0,0,1,.77-10.33c7.92-26.28,63.06-54.36,63.06-54.36A1.63,1.63,0,0,1,532.06,393.69Z" transform="translate(-277.71 -70.24)"/><path class="cls-7" d="M621.21,302.69l-6.19.91a345,345,0,0,1-5.19,35.62l-77.11,31.23-1.06,6-.95-.08c0,1.23,0,2.43.08,3.55.17,6.88.6,11.82,1.28,13.8a1.63,1.63,0,0,0,.45.83c2.09,1.82,29.36-1.71,58.85,9.84,25.57,10,39.9,21,40.57,19.49C640,406,625.34,336.07,621.21,302.69Z" transform="translate(-277.71 -70.24)"/><path class="cls-20" d="M613.16,343.5c-2,10.54-7.36,31.5-17.79,34.31-13.61,3.69-39.92,3.5-64.58,2.08,0-1.12,0-2.32-.08-3.55l.95.08,1.06-6,77.11-31.23A345,345,0,0,0,615,303.6s0,.11,0,.3C615.19,306.65,616.25,327.94,613.16,343.5Z" transform="translate(-277.71 -70.24)"/><path class="cls-20" d="M535.87,276.41c-1.38,2.67-3.36,31.28-4.44,59.68L515.67,320.4C522.36,306.57,535.87,276.41,535.87,276.41Z" transform="translate(-277.71 -70.24)"/><path class="cls-12" d="M526.42,356.84c-13.31,2.46-25.54,4.58-25.54,4.58l0,.69c-14.82-12.62-37.35-48.37-37.35-48.37s6.75-8.64,8.43-10.91c.25-.35,37,26.63,38.87,26.39.47-.05,2.35-3.58,4.86-8.82l15.76,15.69c-.25,6.77-.45,13.51-.58,19.9Z" transform="translate(-277.71 -70.24)"/><path class="cls-21" d="M500.88,361.42l-.32,11.71h-40.1s4-16.71,14.83-16.71,15,6.12,15,6.12Z" transform="translate(-277.71 -70.24)"/><path class="cls-12" d="M471.63,302.56l.31.27c-1.68,2.27-8.43,10.91-8.43,10.91l-4.18-3.16a9.83,9.83,0,0,1-10-.13c-5.59-3.24-2.13-11-1.85-11.88-1.08.33-7.78,6.1-8.83,5.49s-1.83-2.65,5.66-10.54,17.65,2.25,18,2.25Z" transform="translate(-277.71 -70.24)"/><path class="cls-12" d="M450.23,309.11s-1.62,3.22,1.25,4.63a27.21,27.21,0,0,0,10.86,2.17c2.4-.25,4.31-3.83,4.31-3.83l-7.27-7.28h-5.81Z" transform="translate(-277.71 -70.24)"/><path class="cls-22" d="M449.8,310.69c.43-1.58,4.56-.74,7.11-.67,1.89,0,2.92-.48,3.5-2s-2.15-4-2.69-3.2,1,1.84,1,2.86S456.06,309,454,309a47.92,47.92,0,0,0-5.75.59Z" transform="translate(-277.71 -70.24)"/><path class="cls-23" d="M605.91,354.41l-39.27-14.84c-2.86,5.69-5.91,10-8.95,10.83-4.58,1.28-15.66,3.5-26.84,5.59l-4.43.85c-13.31,2.46-25.54,4.58-25.54,4.58l0,.69v.46l-.3,10.56v2.68a259.31,259.31,0,0,1,30.14.53c23.54,1.79,53.89,2.86,63.93-2.2,4.72-2.38,8.48-10.18,11.43-19.81Z" transform="translate(-277.71 -70.24)"/><polygon class="cls-12" points="288.93 269.33 328.2 284.17 326.43 289.77 287.56 271.98 288.93 269.33"/><path class="cls-7" d="M566.64,339.57c-2.86,5.69-5.91,10-8.95,10.83-4.58,1.28-15.66,3.5-26.84,5.59.13-6.39.33-13.13.58-19.9,1.08-28.4,3.06-57,4.44-59.68,2.25-4.47,8.42-14.18,18.14-16.39l0,.13s-3.36,21.18,16.69,21.18c19.09,0,21.52-19.82,21.7-21.72,9.82,1.18,24.89,6.42,27,27.49.42,4.17,1,9.52,1.8,15.59l-6.19.91s-2.51,29.68-9,50.73l-.15.08Z" transform="translate(-277.71 -70.24)"/><polygon class="cls-24" points="288.53 265.46 304.21 224.96 292.65 267.1 288.53 265.46"/><path class="cls-7" d="M592.43,259.61h-8.55s-12.16,14.25-20,14.25-3.6-14.17-3.6-14.17h-3.81c-11,0-20.18,8.78-21.42,20.4-.14,1.33-.27,2.59-.38,3.73-.84,8.62,31.89,14.89,31.89,14.89l16.85-1,10.23-21.3,2-8.73Z" transform="translate(-277.71 -70.24)"/><path class="cls-9" d="M489.31,616.68c.76,4.36,3.59,7.45,7.67,6.64l54.43-10.83a2.7,2.7,0,0,0,2-3.16l-.9-5.15s-57.25,10.69-63.26,12.47Z" transform="translate(-277.71 -70.24)"/><path class="cls-19" d="M505.5,602.06l1.68-1.58q1.65-1.56,3.2-3c.55-.52,1.1-1,1.6-1.53l2.77-2.64c.61-.58,1.17-1.13,1.67-1.62l2.23-2.12a1.18,1.18,0,0,1,1.62,0c2.24,2,9.47,6.6,22.57-2a1.21,1.21,0,0,1,1.78.49l7.92,16.25s-57.25,10.69-63.26,12.47C491.26,615.33,498.57,608.58,505.5,602.06Z" transform="translate(-277.71 -70.24)"/><path class="cls-9" d="M403.58,616.11c.11,4.43,2.44,8,6.59,7.86l55.35-1.44a2.65,2.65,0,0,0,2.48-2.77l-.12-5.24s-58.11.82-64.32,1.55Z" transform="translate(-277.71 -70.24)"/><path class="cls-19" d="M421.75,604.43l1.9-1.27c1.23-.85,2.45-1.66,3.61-2.46l1.81-1.24,3.13-2.13,1.89-1.32,2.51-1.72a1.18,1.18,0,0,1,1.61.24c1.91,2.36,8.36,8.12,22.58,1.81a1.24,1.24,0,0,1,1.69.79l5.4,17.39s-58.11.82-64.32,1.55C405.71,615.11,413.93,609.69,421.75,604.43Z" transform="translate(-277.71 -70.24)"/><polygon class="cls-25" points="86.5 305.57 56.94 221.44 141.1 221.44 170.66 305.57 86.5 305.57"/><polygon class="cls-26" points="175.86 305.57 170.66 305.57 141.1 221.44 145.82 221.66 173.16 297.81 175.86 305.57"/><polyline class="cls-27" points="61.47 296.47 61.89 296.47 167.42 296.47"/><path class="cls-26" d="M451.94,375.81h55.61l-.15-5.31H450.8" transform="translate(-277.71 -70.24)"/><rect class="cls-26" x="397.76" y="321.61" width="13.39" height="234.71"/><rect class="cls-25" x="325.08" y="321.61" width="13.39" height="234.71"/><rect class="cls-26" x="92.25" y="321.61" width="13.39" height="234.71"/><rect class="cls-25" x="19.57" y="321.61" width="13.39" height="234.71"/><rect class="cls-28" x="0.24" y="305.57" width="430.82" height="16.94" rx="4.15"/><polygon class="cls-26" points="70.99 230.28 72.43 234.38 89.19 234.38 87.75 230.28 70.99 230.28"/><polygon class="cls-22" points="237.96 250.15 236.75 252.63 253.72 271.34 253.72 265.85 237.96 250.15"/></g></g></svg>